<svg width="252" height="231" viewBox="0 0 252 231" fill="none" xmlns="http://www.w3.org/2000/svg">
<path d="M0.486696 -17.3298L7.51437 -3.43961C14.5684 10.4081 28.6237 38.1884 51.3493 52.008C74.0749 65.8275 105.471 65.6862 127.933 79.9301C150.395 94.174 163.923 122.803 184.013 140.866C204.104 158.929 230.756 166.426 263.048 164.842C295.339 163.258 333.324 152.508 358.816 161.872C384.309 171.236 397.31 200.714 403.837 215.41L410.338 230.149L498.885 87.5707L487.588 80.5548C476.291 73.539 453.697 59.5073 431.103 45.4756C408.509 31.4439 385.916 17.4122 363.322 3.38045C340.728 -10.6513 318.134 -24.683 295.54 -38.7147C272.947 -52.7464 250.353 -66.7781 227.759 -80.8098C205.165 -94.8415 182.571 -108.873 159.978 -122.905C137.384 -136.937 114.79 -150.968 103.493 -157.984L92.1961 -165L0.486696 -17.3298Z" fill="#4F65F6"/>
</svg>
